<svg xmlns="http://www.w3.org/2000/svg" xmlns:xlink="http://www.w3.org/1999/xlink" style="vertical-align:-8.88ex" width="86.765ex" height="18.884ex" viewBox="0 -4307.5 37357 8130.7"><defs><path id="j" stroke-width="1" d="M263-560v1715h84V-644H0v84h263z"/><path id="d" stroke-width="1" d="M33 157q0 101 76 192t171 92q51 0 90-49 16 30 46 30 13 0 23-8t10-20q0-13-37-160T374 68q0-25 7-33t21-9q9 1 20 9 21 20 41 96 6 20 10 21 2 1 10 1h4q19 0 19-9 0-6-5-27t-20-54-32-50Q436 0 417-8q-8-2-24-2-34 0-57 15t-30 31l-6 15q-1 1-4-1l-4-4q-59-56-120-56-55 0-97 40T33 157zm318 171q0 6-5 22t-23 35-46 20q-35 0-67-31t-50-81q-29-79-41-164v-11q0-8-1-12 0-45 18-62t43-18q38 0 75 33t44 51q2 4 27 107t26 111z"/><path id="f" stroke-width="1" d="M109 429q-27 0-43 18t-16 44q0 71 53 123t132 52q91 0 152-56t62-145q0-43-20-82t-48-68-80-74q-36-31-100-92l-59-56 76-1q157 0 167 5 7 2 24 89v3h40v-3q-1-3-13-91T421 3V0H50v31q0 7 6 15t30 35q29 32 50 56 9 10 34 37t34 37 29 33 28 34 23 30 21 32 15 29 13 32 7 30 3 33q0 63-34 109t-97 46q-33 0-58-17t-35-33-10-19q0-1 5-1 18 0 37-14t19-46q0-25-16-42t-45-18z"/><path id="g" stroke-width="1" d="M127 463q-27 0-42 17t-16 44q0 55 48 98t116 43q35 0 44-1 74-12 113-53t40-89q0-52-34-101t-94-71l-3-2q0-1 9-3t29-9 38-21q82-53 82-140 0-79-62-138T238-22q-80 0-138 43T42 130q0 28 18 45t45 18q28 0 46-18t18-45q0-11-3-20t-7-16-11-12-12-8-10-4-8-3l-4-1q51-45 124-45 55 0 83 53 17 33 17 101v20q0 95-64 127-15 6-61 7l-42 1-3 2q-2 3-2 16 0 18 8 18 28 0 58 5 34 5 62 42t28 112v8q0 57-35 79-22 14-47 14-32 0-59-11t-38-23-11-12h3q3-1 8-2t10-5 12-7 10-11 8-15 3-20q0-22-14-39t-45-18z"/><path id="a" stroke-width="1" d="M319-645v1799h347v-84H403V-645h-84z"/><path id="c" stroke-width="1" d="M319-644v1799h84V-560h263v-84H319z"/><path id="b" stroke-width="1" d="M319 0v602h84V0h-84z"/><path id="h" stroke-width="1" d="M0 1070v84h347V-645h-84v1715H0z"/><path id="e" stroke-width="1" d="M213 578l-13-5q-14-5-40-10t-58-7H83v46h19q47 2 87 15t56 24 28 22q2 3 12 3 9 0 17-6V361l1-300q7-7 12-9t24-4 62-2h26V0h-11q-21 3-159 3-136 0-157-3H88v46h64q16 0 25 1t16 3 8 2 6 5 6 4v517z"/><path id="i" stroke-width="1" d="M263 0v602h84V0h-84z"/><path id="k" stroke-width="1" d="M56 250q0 144 100 238t228 95q146 0 242-98t96-235q0-140-97-236T390-83q-141 0-237 97T56 250zm526 221q-51 39-86 52-50 19-115 19-57 0-109-23t-76-48l193-193 96 97 97 96zm-415-29q-72-80-72-192 0-113 72-192l192 192-192 192zM610 58q72 80 72 192 0 113-72 192L418 250 610 58zM196 29q13-13 34-27t65-29 93-15q21 0 41 2t36 7 31 10 26 12 22 12 17 12 13 9 8 7L388 222 196 29z"/><path id="m" stroke-width="1" d="M73 647q0 10 4 23t12 13q1 0 72 5t73 6q12 0 12-9t-34-143q-8-34-17-70t-15-54l-4-19q0-3 6 3 49 40 101 40 62 0 100-46t39-116q0-111-79-201T173-11q-50 0-91 38T40 150v9q0 21 8 58t49 197q50 197 50 209t-38 14H83q-3 0-7 3t-3 7zm263-322v6q0 74-61 74-17 0-35-8t-33-21-26-24-18-22l-6-8-21-86q-22-86-22-122 0-48 24-72 16-16 40-16 33 0 67 32 25 23 40 56t33 105q18 72 18 106z"/><path id="l" stroke-width="1" d="M247-949v2399h269v-62H309V-887h207v-62H247z"/><path id="n" stroke-width="1" d="M11 1388v62h269V-949H11v62h207v2275H11z"/><path id="o" stroke-width="1" d="M56 347q0 13 14 20h637q15-8 15-20 0-11-14-19l-318-1H72q-16 5-16 20zm0-194q0 15 16 20h636q14-10 14-20 0-13-15-20H70q-14 7-14 20z"/><path id="p" stroke-width="1" d="M78 60q0 24 17 42t43 18q24 0 42-16t19-43q0-25-17-43T139 0 96 17 78 60z"/></defs><g fill="currentColor" stroke="currentColor" stroke-width="0" transform="scale(1 -1)"><g transform="translate(0 2150)"><use y="-1155" xlink:href="#a"/><use transform="matrix(1 0 0 .49338 0 -2048.507)" xlink:href="#b"/><use y="-3155" xlink:href="#c"/></g><g transform="translate(820 1350)"><use xlink:href="#d"/><g transform="matrix(.707 0 0 .707 529 -150)"><use xlink:href="#e"/><use x="500" xlink:href="#e"/></g></g><g transform="translate(820 -50)"><use xlink:href="#d"/><g transform="matrix(.707 0 0 .707 529 -150)"><use xlink:href="#f"/><use x="500" xlink:href="#e"/></g></g><g transform="translate(820 -1450)"><use xlink:href="#d"/><g transform="matrix(.707 0 0 .707 529 -150)"><use xlink:href="#g"/><use x="500" xlink:href="#e"/></g></g><g transform="translate(3157 1350)"><use xlink:href="#d"/><g transform="matrix(.707 0 0 .707 529 -150)"><use xlink:href="#e"/><use x="500" xlink:href="#f"/></g></g><g transform="translate(3157 -50)"><use xlink:href="#d"/><g transform="matrix(.707 0 0 .707 529 -150)"><use xlink:href="#f"/><use x="500" xlink:href="#f"/></g></g><g transform="translate(3157 -1450)"><use xlink:href="#d"/><g transform="matrix(.707 0 0 .707 529 -150)"><use xlink:href="#g"/><use x="500" xlink:href="#f"/></g></g><g transform="translate(4662 2150)"><use y="-1155" xlink:href="#h"/><use transform="matrix(1 0 0 .49338 0 -2048.507)" xlink:href="#i"/><use y="-3155" xlink:href="#j"/></g><use x="5551" xlink:href="#k"/><g transform="translate(6552)"><use xlink:href="#l"/><g transform="translate(681 650)"><use xlink:href="#m"/><g transform="matrix(.707 0 0 .707 429 -150)"><use xlink:href="#e"/><use x="500" xlink:href="#e"/></g></g><g transform="translate(681 -750)"><use xlink:href="#m"/><g transform="matrix(.707 0 0 .707 429 -150)"><use xlink:href="#f"/><use x="500" xlink:href="#e"/></g></g><g transform="translate(2918 650)"><use xlink:href="#m"/><g transform="matrix(.707 0 0 .707 429 -150)"><use xlink:href="#e"/><use x="500" xlink:href="#f"/></g></g><g transform="translate(2918 -750)"><use xlink:href="#m"/><g transform="matrix(.707 0 0 .707 429 -150)"><use xlink:href="#f"/><use x="500" xlink:href="#f"/></g></g><g><g transform="translate(5155 650)"><use xlink:href="#m"/><g transform="matrix(.707 0 0 .707 429 -150)"><use xlink:href="#e"/><use x="500" xlink:href="#g"/></g></g><g transform="translate(5155 -750)"><use xlink:href="#m"/><g transform="matrix(.707 0 0 .707 429 -150)"><use xlink:href="#f"/><use x="500" xlink:href="#g"/></g></g></g><use x="6560" y="-1" xlink:href="#n"/></g><use x="13919" xlink:href="#o"/><g><g transform="translate(14975 4250)"><use y="-1155" xlink:href="#a"/><use transform="matrix(1 0 0 7.44702 0 -6241.553)" xlink:href="#b"/><use y="-7355" xlink:href="#c"/></g><g transform="translate(15795 3450)"><use xlink:href="#d"/><g transform="matrix(.707 0 0 .707 529 -150)"><use xlink:href="#e"/><use x="500" xlink:href="#e"/></g><g transform="translate(1337)"><use xlink:href="#m"/><g transform="matrix(.707 0 0 .707 429 -150)"><use xlink:href="#e"/><use x="500" xlink:href="#e"/></g></g></g><g transform="translate(15795 2050)"><use xlink:href="#d"/><g transform="matrix(.707 0 0 .707 529 -150)"><use xlink:href="#e"/><use x="500" xlink:href="#e"/></g><g transform="translate(1337)"><use xlink:href="#m"/><g transform="matrix(.707 0 0 .707 429 -150)"><use xlink:href="#f"/><use x="500" xlink:href="#e"/></g></g></g><g transform="translate(15795 650)"><use xlink:href="#d"/><g transform="matrix(.707 0 0 .707 529 -150)"><use xlink:href="#f"/><use x="500" xlink:href="#e"/></g><g transform="translate(1337)"><use xlink:href="#m"/><g transform="matrix(.707 0 0 .707 429 -150)"><use xlink:href="#e"/><use x="500" xlink:href="#e"/></g></g></g><g transform="translate(15795 -750)"><use xlink:href="#d"/><g transform="matrix(.707 0 0 .707 529 -150)"><use xlink:href="#f"/><use x="500" xlink:href="#e"/></g><g transform="translate(1337)"><use xlink:href="#m"/><g transform="matrix(.707 0 0 .707 429 -150)"><use xlink:href="#f"/><use x="500" xlink:href="#e"/></g></g></g><g transform="translate(15795 -2150)"><use xlink:href="#d"/><g transform="matrix(.707 0 0 .707 529 -150)"><use xlink:href="#g"/><use x="500" xlink:href="#e"/></g><g transform="translate(1337)"><use xlink:href="#m"/><g transform="matrix(.707 0 0 .707 429 -150)"><use xlink:href="#e"/><use x="500" xlink:href="#e"/></g></g></g><g transform="translate(15795 -3550)"><use xlink:href="#d"/><g transform="matrix(.707 0 0 .707 529 -150)"><use xlink:href="#g"/><use x="500" xlink:href="#e"/></g><g transform="translate(1337)"><use xlink:href="#m"/><g transform="matrix(.707 0 0 .707 429 -150)"><use xlink:href="#f"/><use x="500" xlink:href="#e"/></g></g></g><g><g transform="translate(19369 3450)"><use xlink:href="#d"/><g transform="matrix(.707 0 0 .707 529 -150)"><use xlink:href="#e"/><use x="500" xlink:href="#e"/></g><g transform="translate(1337)"><use xlink:href="#m"/><g transform="matrix(.707 0 0 .707 429 -150)"><use xlink:href="#e"/><use x="500" xlink:href="#f"/></g></g></g><g transform="translate(19369 2050)"><use xlink:href="#d"/><g transform="matrix(.707 0 0 .707 529 -150)"><use xlink:href="#e"/><use x="500" xlink:href="#e"/></g><g transform="translate(1337)"><use xlink:href="#m"/><g transform="matrix(.707 0 0 .707 429 -150)"><use xlink:href="#f"/><use x="500" xlink:href="#f"/></g></g></g><g transform="translate(19369 650)"><use xlink:href="#d"/><g transform="matrix(.707 0 0 .707 529 -150)"><use xlink:href="#f"/><use x="500" xlink:href="#e"/></g><g transform="translate(1337)"><use xlink:href="#m"/><g transform="matrix(.707 0 0 .707 429 -150)"><use xlink:href="#e"/><use x="500" xlink:href="#f"/></g></g></g><g transform="translate(19369 -750)"><use xlink:href="#d"/><g transform="matrix(.707 0 0 .707 529 -150)"><use xlink:href="#f"/><use x="500" xlink:href="#e"/></g><g transform="translate(1337)"><use xlink:href="#m"/><g transform="matrix(.707 0 0 .707 429 -150)"><use xlink:href="#f"/><use x="500" xlink:href="#f"/></g></g></g><g transform="translate(19369 -2150)"><use xlink:href="#d"/><g transform="matrix(.707 0 0 .707 529 -150)"><use xlink:href="#g"/><use x="500" xlink:href="#e"/></g><g transform="translate(1337)"><use xlink:href="#m"/><g transform="matrix(.707 0 0 .707 429 -150)"><use xlink:href="#e"/><use x="500" xlink:href="#f"/></g></g></g><g transform="translate(19369 -3550)"><use xlink:href="#d"/><g transform="matrix(.707 0 0 .707 529 -150)"><use xlink:href="#g"/><use x="500" xlink:href="#e"/></g><g transform="translate(1337)"><use xlink:href="#m"/><g transform="matrix(.707 0 0 .707 429 -150)"><use xlink:href="#f"/><use x="500" xlink:href="#f"/></g></g></g></g><g><g transform="translate(22944 3450)"><use xlink:href="#d"/><g transform="matrix(.707 0 0 .707 529 -150)"><use xlink:href="#e"/><use x="500" xlink:href="#e"/></g><g transform="translate(1337)"><use xlink:href="#m"/><g transform="matrix(.707 0 0 .707 429 -150)"><use xlink:href="#e"/><use x="500" xlink:href="#g"/></g></g></g><g transform="translate(22944 2050)"><use xlink:href="#d"/><g transform="matrix(.707 0 0 .707 529 -150)"><use xlink:href="#e"/><use x="500" xlink:href="#e"/></g><g transform="translate(1337)"><use xlink:href="#m"/><g transform="matrix(.707 0 0 .707 429 -150)"><use xlink:href="#f"/><use x="500" xlink:href="#g"/></g></g></g><g transform="translate(22944 650)"><use xlink:href="#d"/><g transform="matrix(.707 0 0 .707 529 -150)"><use xlink:href="#f"/><use x="500" xlink:href="#e"/></g><g transform="translate(1337)"><use xlink:href="#m"/><g transform="matrix(.707 0 0 .707 429 -150)"><use xlink:href="#e"/><use x="500" xlink:href="#g"/></g></g></g><g transform="translate(22944 -750)"><use xlink:href="#d"/><g transform="matrix(.707 0 0 .707 529 -150)"><use xlink:href="#f"/><use x="500" xlink:href="#e"/></g><g transform="translate(1337)"><use xlink:href="#m"/><g transform="matrix(.707 0 0 .707 429 -150)"><use xlink:href="#f"/><use x="500" xlink:href="#g"/></g></g></g><g transform="translate(22944 -2150)"><use xlink:href="#d"/><g transform="matrix(.707 0 0 .707 529 -150)"><use xlink:href="#g"/><use x="500" xlink:href="#e"/></g><g transform="translate(1337)"><use xlink:href="#m"/><g transform="matrix(.707 0 0 .707 429 -150)"><use xlink:href="#e"/><use x="500" xlink:href="#g"/></g></g></g><g transform="translate(22944 -3550)"><use xlink:href="#d"/><g transform="matrix(.707 0 0 .707 529 -150)"><use xlink:href="#g"/><use x="500" xlink:href="#e"/></g><g transform="translate(1337)"><use xlink:href="#m"/><g transform="matrix(.707 0 0 .707 429 -150)"><use xlink:href="#f"/><use x="500" xlink:href="#g"/></g></g></g></g><g><g transform="translate(26518 3450)"><use xlink:href="#d"/><g transform="matrix(.707 0 0 .707 529 -150)"><use xlink:href="#e"/><use x="500" xlink:href="#f"/></g><g transform="translate(1337)"><use xlink:href="#m"/><g transform="matrix(.707 0 0 .707 429 -150)"><use xlink:href="#e"/><use x="500" xlink:href="#e"/></g></g></g><g transform="translate(26518 2050)"><use xlink:href="#d"/><g transform="matrix(.707 0 0 .707 529 -150)"><use xlink:href="#e"/><use x="500" xlink:href="#f"/></g><g transform="translate(1337)"><use xlink:href="#m"/><g transform="matrix(.707 0 0 .707 429 -150)"><use xlink:href="#f"/><use x="500" xlink:href="#e"/></g></g></g><g transform="translate(26518 650)"><use xlink:href="#d"/><g transform="matrix(.707 0 0 .707 529 -150)"><use xlink:href="#f"/><use x="500" xlink:href="#f"/></g><g transform="translate(1337)"><use xlink:href="#m"/><g transform="matrix(.707 0 0 .707 429 -150)"><use xlink:href="#e"/><use x="500" xlink:href="#e"/></g></g></g><g transform="translate(26518 -750)"><use xlink:href="#d"/><g transform="matrix(.707 0 0 .707 529 -150)"><use xlink:href="#f"/><use x="500" xlink:href="#f"/></g><g transform="translate(1337)"><use xlink:href="#m"/><g transform="matrix(.707 0 0 .707 429 -150)"><use xlink:href="#f"/><use x="500" xlink:href="#e"/></g></g></g><g transform="translate(26518 -2150)"><use xlink:href="#d"/><g transform="matrix(.707 0 0 .707 529 -150)"><use xlink:href="#g"/><use x="500" xlink:href="#f"/></g><g transform="translate(1337)"><use xlink:href="#m"/><g transform="matrix(.707 0 0 .707 429 -150)"><use xlink:href="#e"/><use x="500" xlink:href="#e"/></g></g></g><g transform="translate(26518 -3550)"><use xlink:href="#d"/><g transform="matrix(.707 0 0 .707 529 -150)"><use xlink:href="#g"/><use x="500" xlink:href="#f"/></g><g transform="translate(1337)"><use xlink:href="#m"/><g transform="matrix(.707 0 0 .707 429 -150)"><use xlink:href="#f"/><use x="500" xlink:href="#e"/></g></g></g></g><g><g transform="translate(30093 3450)"><use xlink:href="#d"/><g transform="matrix(.707 0 0 .707 529 -150)"><use xlink:href="#e"/><use x="500" xlink:href="#f"/></g><g transform="translate(1337)"><use xlink:href="#m"/><g transform="matrix(.707 0 0 .707 429 -150)"><use xlink:href="#e"/><use x="500" xlink:href="#f"/></g></g></g><g transform="translate(30093 2050)"><use xlink:href="#d"/><g transform="matrix(.707 0 0 .707 529 -150)"><use xlink:href="#e"/><use x="500" xlink:href="#f"/></g><g transform="translate(1337)"><use xlink:href="#m"/><g transform="matrix(.707 0 0 .707 429 -150)"><use xlink:href="#f"/><use x="500" xlink:href="#f"/></g></g></g><g transform="translate(30093 650)"><use xlink:href="#d"/><g transform="matrix(.707 0 0 .707 529 -150)"><use xlink:href="#f"/><use x="500" xlink:href="#f"/></g><g transform="translate(1337)"><use xlink:href="#m"/><g transform="matrix(.707 0 0 .707 429 -150)"><use xlink:href="#e"/><use x="500" xlink:href="#f"/></g></g></g><g transform="translate(30093 -750)"><use xlink:href="#d"/><g transform="matrix(.707 0 0 .707 529 -150)"><use xlink:href="#f"/><use x="500" xlink:href="#f"/></g><g transform="translate(1337)"><use xlink:href="#m"/><g transform="matrix(.707 0 0 .707 429 -150)"><use xlink:href="#f"/><use x="500" xlink:href="#f"/></g></g></g><g transform="translate(30093 -2150)"><use xlink:href="#d"/><g transform="matrix(.707 0 0 .707 529 -150)"><use xlink:href="#g"/><use x="500" xlink:href="#f"/></g><g transform="translate(1337)"><use xlink:href="#m"/><g transform="matrix(.707 0 0 .707 429 -150)"><use xlink:href="#e"/><use x="500" xlink:href="#f"/></g></g></g><g transform="translate(30093 -3550)"><use xlink:href="#d"/><g transform="matrix(.707 0 0 .707 529 -150)"><use xlink:href="#g"/><use x="500" xlink:href="#f"/></g><g transform="translate(1337)"><use xlink:href="#m"/><g transform="matrix(.707 0 0 .707 429 -150)"><use xlink:href="#f"/><use x="500" xlink:href="#f"/></g></g></g></g><g><g transform="translate(33668 3450)"><use xlink:href="#d"/><g transform="matrix(.707 0 0 .707 529 -150)"><use xlink:href="#e"/><use x="500" xlink:href="#f"/></g><g transform="translate(1337)"><use xlink:href="#m"/><g transform="matrix(.707 0 0 .707 429 -150)"><use xlink:href="#e"/><use x="500" xlink:href="#g"/></g></g></g><g transform="translate(33668 2050)"><use xlink:href="#d"/><g transform="matrix(.707 0 0 .707 529 -150)"><use xlink:href="#e"/><use x="500" xlink:href="#f"/></g><g transform="translate(1337)"><use xlink:href="#m"/><g transform="matrix(.707 0 0 .707 429 -150)"><use xlink:href="#f"/><use x="500" xlink:href="#g"/></g></g></g><g transform="translate(33668 650)"><use xlink:href="#d"/><g transform="matrix(.707 0 0 .707 529 -150)"><use xlink:href="#f"/><use x="500" xlink:href="#f"/></g><g transform="translate(1337)"><use xlink:href="#m"/><g transform="matrix(.707 0 0 .707 429 -150)"><use xlink:href="#e"/><use x="500" xlink:href="#g"/></g></g></g><g transform="translate(33668 -750)"><use xlink:href="#d"/><g transform="matrix(.707 0 0 .707 529 -150)"><use xlink:href="#f"/><use x="500" xlink:href="#f"/></g><g transform="translate(1337)"><use xlink:href="#m"/><g transform="matrix(.707 0 0 .707 429 -150)"><use xlink:href="#f"/><use x="500" xlink:href="#g"/></g></g></g><g transform="translate(33668 -2150)"><use xlink:href="#d"/><g transform="matrix(.707 0 0 .707 529 -150)"><use xlink:href="#g"/><use x="500" xlink:href="#f"/></g><g transform="translate(1337)"><use xlink:href="#m"/><g transform="matrix(.707 0 0 .707 429 -150)"><use xlink:href="#e"/><use x="500" xlink:href="#g"/></g></g></g><g transform="translate(33668 -3550)"><use xlink:href="#d"/><g transform="matrix(.707 0 0 .707 529 -150)"><use xlink:href="#g"/><use x="500" xlink:href="#f"/></g><g transform="translate(1337)"><use xlink:href="#m"/><g transform="matrix(.707 0 0 .707 429 -150)"><use xlink:href="#f"/><use x="500" xlink:href="#g"/></g></g></g></g><g transform="translate(36410 4250)"><use y="-1155" xlink:href="#h"/><use transform="matrix(1 0 0 7.44702 0 -6241.553)" xlink:href="#i"/><use y="-7355" xlink:href="#j"/></g></g><use x="37078" xlink:href="#p"/></g></svg>